<svg xmlns="http://www.w3.org/2000/svg" width="1298" height="620" viewBox="0 0 1298 620" role="img" aria-labelledby="title desc">
<title id="title">Solved candidate bitstring probability</title>
<desc id="desc">Log-scale bar chart of reported candidate probabilities or top fractions.</desc>
<rect width="100%" height="100%" fill="#ffffff"/>
<text x="80" y="24" font-family="Arial, sans-serif" font-size="18" font-weight="700">Solved candidate bitstring probability / top fraction</text>
<line x1="80" x2="1268" y1="470.00" y2="470.00" stroke="#e6e6e6"/>
<text x="70" y="474.00" text-anchor="end" font-family="Arial, sans-serif" font-size="12" fill="#333">1e-4</text>
<line x1="80" x2="1268" y1="363.00" y2="363.00" stroke="#e6e6e6"/>
<text x="70" y="367.00" text-anchor="end" font-family="Arial, sans-serif" font-size="12" fill="#333">1e-3</text>
<line x1="80" x2="1268" y1="256.00" y2="256.00" stroke="#e6e6e6"/>
<text x="70" y="260.00" text-anchor="end" font-family="Arial, sans-serif" font-size="12" fill="#333">1e-2</text>
<line x1="80" x2="1268" y1="149.00" y2="149.00" stroke="#e6e6e6"/>
<text x="70" y="153.00" text-anchor="end" font-family="Arial, sans-serif" font-size="12" fill="#333">1e-1</text>
<line x1="80" x2="1268" y1="42.00" y2="42.00" stroke="#e6e6e6"/>
<text x="70" y="46.00" text-anchor="end" font-family="Arial, sans-serif" font-size="12" fill="#333">1e0</text>
<line x1="80" x2="80" y1="42" y2="470" stroke="#333"/>
<line x1="80" x2="1268" y1="470" y2="470" stroke="#333"/>
<g><title>8_1: 0.912638 (exact_statevector)</title>
<rect x="80.00" y="46.25" width="23.72" height="423.75" fill="#2f7d32"/>
<text x="91.86" y="486" transform="rotate(65 91.86 486)" font-family="Arial, sans-serif" font-size="11" fill="#222">8_1</text>
</g>
<g><title>16_2: 0.46697 (exact_statevector)</title>
<rect x="107.72" y="77.39" width="23.72" height="392.61" fill="#2f7d32"/>
<text x="119.58" y="486" transform="rotate(65 119.58 486)" font-family="Arial, sans-serif" font-size="11" fill="#222">16_2</text>
</g>
<g><title>24_3: 0.723984 (exact_statevector)</title>
<rect x="135.44" y="57.01" width="23.72" height="412.99" fill="#2f7d32"/>
<text x="147.30" y="486" transform="rotate(65 147.30 486)" font-family="Arial, sans-serif" font-size="11" fill="#222">24_3</text>
</g>
<g><title>28_4: 0.351112 (exact_statevector)</title>
<rect x="163.16" y="90.64" width="23.72" height="379.36" fill="#2f7d32"/>
<text x="175.02" y="486" transform="rotate(65 175.02 486)" font-family="Arial, sans-serif" font-size="11" fill="#222">28_4</text>
</g>
<g><title>32_5: 0.532227 (quimb_cpu_all)</title>
<rect x="190.88" y="71.31" width="23.72" height="398.69" fill="#2f7d32"/>
<text x="202.74" y="486" transform="rotate(65 202.74 486)" font-family="Arial, sans-serif" font-size="11" fill="#222">32_5</text>
</g>
<g><title>36_6: 0.688477 (quimb_cpu_all)</title>
<rect x="218.60" y="59.35" width="23.72" height="410.65" fill="#2f7d32"/>
<text x="230.47" y="486" transform="rotate(65 230.47 486)" font-family="Arial, sans-serif" font-size="11" fill="#222">36_6</text>
</g>
<g><title>40_7: 0.878906 (quimb_cpu_all)</title>
<rect x="246.33" y="48.00" width="23.72" height="422.00" fill="#2f7d32"/>
<text x="258.19" y="486" transform="rotate(65 258.19 486)" font-family="Arial, sans-serif" font-size="11" fill="#222">40_7</text>
</g>
<g><title>48_8: 0.697266 (quimb_cpu_all)</title>
<rect x="274.05" y="58.76" width="23.72" height="411.24" fill="#2f7d32"/>
<text x="285.91" y="486" transform="rotate(65 285.91 486)" font-family="Arial, sans-serif" font-size="11" fill="#222">48_8</text>
</g>
<g><title>56_9: 0.78125 (quimb_cpu_all)</title>
<rect x="301.77" y="53.47" width="23.72" height="416.53" fill="#2f7d32"/>
<text x="313.63" y="486" transform="rotate(65 313.63 486)" font-family="Arial, sans-serif" font-size="11" fill="#222">56_9</text>
</g>
<g><title>64_10: 0.787109 (quimb_cpu_all)</title>
<rect x="329.49" y="53.12" width="23.72" height="416.88" fill="#2f7d32"/>
<text x="341.35" y="486" transform="rotate(65 341.35 486)" font-family="Arial, sans-serif" font-size="11" fill="#222">64_10</text>
</g>
<g><title>8_11: 0.545448 (exact_statevector)</title>
<rect x="357.21" y="70.17" width="23.72" height="399.83" fill="#1976a2"/>
<text x="369.07" y="486" transform="rotate(65 369.07 486)" font-family="Arial, sans-serif" font-size="11" fill="#222">8_11</text>
</g>
<g><title>16_12: 0.466537 (exact_statevector)</title>
<rect x="384.93" y="77.43" width="23.72" height="392.57" fill="#1976a2"/>
<text x="396.79" y="486" transform="rotate(65 396.79 486)" font-family="Arial, sans-serif" font-size="11" fill="#222">16_12</text>
</g>
<g><title>24_13: 0.591248 (exact_statevector)</title>
<rect x="412.65" y="66.42" width="23.72" height="403.58" fill="#1976a2"/>
<text x="424.51" y="486" transform="rotate(65 424.51 486)" font-family="Arial, sans-serif" font-size="11" fill="#222">24_13</text>
</g>
<g><title>32_14: 0.47168 (quimb_gpu_all)</title>
<rect x="440.37" y="76.92" width="23.72" height="393.08" fill="#1976a2"/>
<text x="452.23" y="486" transform="rotate(65 452.23 486)" font-family="Arial, sans-serif" font-size="11" fill="#222">32_14</text>
</g>
<g><title>36_15: 0.03125 (quimb_gpu_all)</title>
<rect x="468.09" y="203.05" width="23.72" height="266.95" fill="#1976a2"/>
<text x="479.95" y="486" transform="rotate(65 479.95 486)" font-family="Arial, sans-serif" font-size="11" fill="#222">36_15</text>
</g>
<g><title>40_16: 0.442383 (quimb_gpu_all)</title>
<rect x="495.81" y="79.90" width="23.72" height="390.10" fill="#1976a2"/>
<text x="507.67" y="486" transform="rotate(65 507.67 486)" font-family="Arial, sans-serif" font-size="11" fill="#222">40_16</text>
</g>
<g><title>40_17: 0.545898 (quimb_gpu_all)</title>
<rect x="523.53" y="70.13" width="23.72" height="399.87" fill="#1976a2"/>
<text x="535.40" y="486" transform="rotate(65 535.40 486)" font-family="Arial, sans-serif" font-size="11" fill="#222">40_17</text>
</g>
<g><title>40_18: 0.439453 (quimb_gpu_all)</title>
<rect x="551.26" y="80.21" width="23.72" height="389.79" fill="#1976a2"/>
<text x="563.12" y="486" transform="rotate(65 563.12 486)" font-family="Arial, sans-serif" font-size="11" fill="#222">40_18</text>
</g>
<g><title>48_19: 0.673828 (quimb_gpu_all)</title>
<rect x="578.98" y="60.35" width="23.72" height="409.65" fill="#1976a2"/>
<text x="590.84" y="486" transform="rotate(65 590.84 486)" font-family="Arial, sans-serif" font-size="11" fill="#222">48_19</text>
</g>
<g><title>48_20: 0.612305 (quimb_gpu_all)</title>
<rect x="606.70" y="64.79" width="23.72" height="405.21" fill="#1976a2"/>
<text x="618.56" y="486" transform="rotate(65 618.56 486)" font-family="Arial, sans-serif" font-size="11" fill="#222">48_20</text>
</g>
<g><title>48_21: 0.441406 (quimb_gpu_all)</title>
<rect x="634.42" y="80.00" width="23.72" height="390.00" fill="#1976a2"/>
<text x="646.28" y="486" transform="rotate(65 646.28 486)" font-family="Arial, sans-serif" font-size="11" fill="#222">48_21</text>
</g>
<g><title>56_22: 0.589844 (quimb_gpu_all)</title>
<rect x="662.14" y="66.53" width="23.72" height="403.47" fill="#1976a2"/>
<text x="674.00" y="486" transform="rotate(65 674.00 486)" font-family="Arial, sans-serif" font-size="11" fill="#222">56_22</text>
</g>
<g><title>56_23: 0.49707 (quimb_gpu_all)</title>
<rect x="689.86" y="74.48" width="23.72" height="395.52" fill="#1976a2"/>
<text x="701.72" y="486" transform="rotate(65 701.72 486)" font-family="Arial, sans-serif" font-size="11" fill="#222">56_23</text>
</g>
<g><title>56_24: 0.517578 (quimb_gpu_all)</title>
<rect x="717.58" y="72.60" width="23.72" height="397.40" fill="#1976a2"/>
<text x="729.44" y="486" transform="rotate(65 729.44 486)" font-family="Arial, sans-serif" font-size="11" fill="#222">56_24</text>
</g>
<g><title>64_25: 0.396484 (quimb_gpu_all)</title>
<rect x="745.30" y="84.99" width="23.72" height="385.01" fill="#1976a2"/>
<text x="757.16" y="486" transform="rotate(65 757.16 486)" font-family="Arial, sans-serif" font-size="11" fill="#222">64_25</text>
</g>
<g><title>64_26: 0.261719 (quimb_gpu_all)</title>
<rect x="773.02" y="104.29" width="23.72" height="365.71" fill="#1976a2"/>
<text x="784.88" y="486" transform="rotate(65 784.88 486)" font-family="Arial, sans-serif" font-size="11" fill="#222">64_26</text>
</g>
<g><title>8_27: 0.287907 (exact_statevector)</title>
<rect x="800.74" y="99.86" width="23.72" height="370.14" fill="#9a6a00"/>
<text x="812.60" y="486" transform="rotate(65 812.60 486)" font-family="Arial, sans-serif" font-size="11" fill="#222">8_27</text>
</g>
<g><title>16_28: 0.396206 (exact_statevector)</title>
<rect x="828.47" y="85.02" width="23.72" height="384.98" fill="#9a6a00"/>
<text x="840.33" y="486" transform="rotate(65 840.33 486)" font-family="Arial, sans-serif" font-size="11" fill="#222">16_28</text>
</g>
<g><title>24_29: 0.390097 (exact_statevector)</title>
<rect x="856.19" y="85.74" width="23.72" height="384.26" fill="#9a6a00"/>
<text x="868.05" y="486" transform="rotate(65 868.05 486)" font-family="Arial, sans-serif" font-size="11" fill="#222">24_29</text>
</g>
<g><title>32_30: 0.135742 (quimb_cpu_all)</title>
<rect x="883.91" y="134.80" width="23.72" height="335.20" fill="#9a6a00"/>
<text x="895.77" y="486" transform="rotate(65 895.77 486)" font-family="Arial, sans-serif" font-size="11" fill="#222">32_30</text>
</g>
<g><title>48_31: 0.420898 (quimb_cpu_all)</title>
<rect x="911.63" y="82.21" width="23.72" height="387.79" fill="#9a6a00"/>
<text x="923.49" y="486" transform="rotate(65 923.49 486)" font-family="Arial, sans-serif" font-size="11" fill="#222">48_31</text>
</g>
<g><title>48_32: 0.265625 (quimb_cpu_all)</title>
<rect x="939.35" y="103.60" width="23.72" height="366.40" fill="#9a6a00"/>
<text x="951.21" y="486" transform="rotate(65 951.21 486)" font-family="Arial, sans-serif" font-size="11" fill="#222">48_32</text>
</g>
<g><title>56_33: 0.041016 (quimb_cpu_all)</title>
<rect x="967.07" y="190.41" width="23.72" height="279.59" fill="#9a6a00"/>
<text x="978.93" y="486" transform="rotate(65 978.93 486)" font-family="Arial, sans-serif" font-size="11" fill="#222">56_33</text>
</g>
<g><title>64_34: 0.163086 (quimb_cpu_all)</title>
<rect x="994.79" y="126.27" width="23.72" height="343.73" fill="#9a6a00"/>
<text x="1006.65" y="486" transform="rotate(65 1006.65 486)" font-family="Arial, sans-serif" font-size="11" fill="#222">64_34</text>
</g>
<g><title>40_35: 1.953e-03 (quimb_gpu_all)</title>
<rect x="1022.51" y="331.89" width="23.72" height="138.11" fill="#b03a2e"/>
<text x="1034.37" y="486" transform="rotate(65 1034.37 486)" font-family="Arial, sans-serif" font-size="11" fill="#222">40_35</text>
</g>
<g><title>48_36: 7.812e-03 (quimb_gpu_all)</title>
<rect x="1050.23" y="267.47" width="23.72" height="202.53" fill="#b03a2e"/>
<text x="1062.09" y="486" transform="rotate(65 1062.09 486)" font-family="Arial, sans-serif" font-size="11" fill="#222">48_36</text>
</g>
<g><title>48_37: 9.766e-04 (quimb_gpu_all)</title>
<rect x="1077.95" y="364.10" width="23.72" height="105.90" fill="#b03a2e"/>
<text x="1089.81" y="486" transform="rotate(65 1089.81 486)" font-family="Arial, sans-serif" font-size="11" fill="#222">48_37</text>
</g>
<g><title>56_38: 1.953e-03 (quimb_rcm_cpu)</title>
<rect x="1105.67" y="331.89" width="23.72" height="138.11" fill="#b03a2e"/>
<text x="1117.53" y="486" transform="rotate(65 1117.53 486)" font-family="Arial, sans-serif" font-size="11" fill="#222">56_38</text>
</g>
<g><title>56_39: 1.953e-03 (quimb_gpu_all)</title>
<rect x="1133.40" y="331.89" width="23.72" height="138.11" fill="#b03a2e"/>
<text x="1145.26" y="486" transform="rotate(65 1145.26 486)" font-family="Arial, sans-serif" font-size="11" fill="#222">56_39</text>
</g>
<g><title>64_40: 1.000e-03 (peaked_mpo_unswap_gpu)</title>
<rect x="1161.12" y="363.00" width="23.72" height="107.00" fill="#b03a2e"/>
<text x="1172.98" y="486" transform="rotate(65 1172.98 486)" font-family="Arial, sans-serif" font-size="11" fill="#222">64_40</text>
</g>
<g><title>64_41: 0.167 (aer_mps_pilot)</title>
<rect x="1188.84" y="125.17" width="23.72" height="344.83" fill="#b03a2e"/>
<text x="1200.70" y="486" transform="rotate(65 1200.70 486)" font-family="Arial, sans-serif" font-size="11" fill="#222">64_41</text>
</g>
<g><title>48_42: 2.604e-03 (peaked_mpo_graph_tns_veryhard_fast_cpu_b)</title>
<rect x="1216.56" y="318.52" width="23.72" height="151.48" fill="#6f3fb3"/>
<text x="1228.42" y="486" transform="rotate(65 1228.42 486)" font-family="Arial, sans-serif" font-size="11" fill="#222">48_42</text>
</g>
<g><title>56_43: 2.604e-03 (peaked_mpo_graph_tns_veryhard_fast_cpu_b)</title>
<rect x="1244.28" y="318.52" width="23.72" height="151.48" fill="#6f3fb3"/>
<text x="1256.14" y="486" transform="rotate(65 1256.14 486)" font-family="Arial, sans-serif" font-size="11" fill="#222">56_43</text>
</g>
<rect x="80" y="578" width="12" height="12" fill="#2f7d32"/>
<text x="98" y="588" font-family="Arial, sans-serif" font-size="12" fill="#222">very easy</text>
<rect x="200" y="578" width="12" height="12" fill="#1976a2"/>
<text x="218" y="588" font-family="Arial, sans-serif" font-size="12" fill="#222">easy</text>
<rect x="320" y="578" width="12" height="12" fill="#9a6a00"/>
<text x="338" y="588" font-family="Arial, sans-serif" font-size="12" fill="#222">moderate</text>
<rect x="440" y="578" width="12" height="12" fill="#b03a2e"/>
<text x="458" y="588" font-family="Arial, sans-serif" font-size="12" fill="#222">hard</text>
<rect x="560" y="578" width="12" height="12" fill="#6f3fb3"/>
<text x="578" y="588" font-family="Arial, sans-serif" font-size="12" fill="#222">very_hard</text>
</svg>
