<svg xmlns="http://www.w3.org/2000/svg" width="1500" height="606" viewBox="0 0 1500 606" role="img">
<rect width="100%" height="100%" fill="#ffffff"/>
<rect x="0" y="0" width="1500" height="606" fill="#ffffff" stroke="#d9dde6"/>
<text x="36.0" y="42.0" font-family="Arial" font-size="24" font-weight="700" fill="#172033">24_3 bitstring probability distribution</text>
<text x="36.0" y="72.0" font-family="Arial" font-size="15" font-weight="400" fill="#172033">difficulty=very easy q=24 source=exact statevector kind=exact</text>
<text x="36.0" y="96.0" font-family="Courier New" font-size="14" font-weight="700" fill="#172033">Selected bitstring: 011110010000101010001000</text>
<text x="96.0" y="124.0" font-family="Arial" font-size="13" font-weight="700" fill="#172033">probability</text>
<text x="550.0" y="124.0" font-family="Courier New" font-size="13" font-weight="700" fill="#172033">qiskit_order bitstring</text>
<text x="36.0" y="154.0" font-family="Courier New" font-size="14" font-weight="700" fill="#172033"> 1</text>
<rect x="96" y="132" width="420" height="26" fill="#eef2f7" rx="4"/>
<rect x="96" y="132" width="420" height="26" fill="#287271" rx="4"/>
<text x="106.0" y="151.0" font-family="Arial" font-size="13" font-weight="700" fill="#172033">0.723984</text>
<text x="550.0" y="150.0" font-family="Courier New" font-size="14" font-weight="400" fill="#172033">011110010000101010001000</text>
<text x="36.0" y="202.0" font-family="Courier New" font-size="14" font-weight="700" fill="#172033"> 2</text>
<rect x="96" y="180" width="420" height="26" fill="#eef2f7" rx="4"/>
<rect x="96" y="180" width="27" height="26" fill="#4c78a8" rx="4"/>
<text x="106.0" y="199.0" font-family="Arial" font-size="13" font-weight="700" fill="#172033">0.047092</text>
<text x="550.0" y="198.0" font-family="Courier New" font-size="14" font-weight="400" fill="#172033">011110000000101010001000</text>
<text x="36.0" y="250.0" font-family="Courier New" font-size="14" font-weight="700" fill="#172033"> 3</text>
<rect x="96" y="228" width="420" height="26" fill="#eef2f7" rx="4"/>
<rect x="96" y="228" width="23" height="26" fill="#4c78a8" rx="4"/>
<text x="106.0" y="247.0" font-family="Arial" font-size="13" font-weight="700" fill="#172033">0.040523</text>
<text x="550.0" y="246.0" font-family="Courier New" font-size="14" font-weight="400" fill="#172033">011100010000101010001000</text>
<text x="36.0" y="298.0" font-family="Courier New" font-size="14" font-weight="700" fill="#172033"> 4</text>
<rect x="96" y="276" width="420" height="26" fill="#eef2f7" rx="4"/>
<rect x="96" y="276" width="21" height="26" fill="#4c78a8" rx="4"/>
<text x="106.0" y="295.0" font-family="Arial" font-size="13" font-weight="700" fill="#172033">0.036712</text>
<text x="550.0" y="294.0" font-family="Courier New" font-size="14" font-weight="400" fill="#172033">011110000000101010101000</text>
<text x="36.0" y="346.0" font-family="Courier New" font-size="14" font-weight="700" fill="#172033"> 5</text>
<rect x="96" y="324" width="420" height="26" fill="#eef2f7" rx="4"/>
<rect x="96" y="324" width="20" height="26" fill="#4c78a8" rx="4"/>
<text x="106.0" y="343.0" font-family="Arial" font-size="13" font-weight="700" fill="#172033">0.034981</text>
<text x="550.0" y="342.0" font-family="Courier New" font-size="14" font-weight="400" fill="#172033">011110000001101010001000</text>
<text x="36.0" y="394.0" font-family="Courier New" font-size="14" font-weight="700" fill="#172033"> 6</text>
<rect x="96" y="372" width="420" height="26" fill="#eef2f7" rx="4"/>
<rect x="96" y="372" width="14" height="26" fill="#4c78a8" rx="4"/>
<text x="106.0" y="391.0" font-family="Arial" font-size="13" font-weight="700" fill="#172033">0.024649</text>
<text x="550.0" y="390.0" font-family="Courier New" font-size="14" font-weight="400" fill="#172033">011110000000101010011000</text>
<text x="36.0" y="442.0" font-family="Courier New" font-size="14" font-weight="700" fill="#172033"> 7</text>
<rect x="96" y="420" width="420" height="26" fill="#eef2f7" rx="4"/>
<rect x="96" y="420" width="13" height="26" fill="#4c78a8" rx="4"/>
<text x="106.0" y="439.0" font-family="Arial" font-size="13" font-weight="700" fill="#172033">0.022924</text>
<text x="550.0" y="438.0" font-family="Courier New" font-size="14" font-weight="400" fill="#172033">011111000000101010001000</text>
<text x="36.0" y="490.0" font-family="Courier New" font-size="14" font-weight="700" fill="#172033"> 8</text>
<rect x="96" y="468" width="420" height="26" fill="#eef2f7" rx="4"/>
<rect x="96" y="468" width="3" height="26" fill="#4c78a8" rx="4"/>
<text x="106.0" y="487.0" font-family="Arial" font-size="13" font-weight="700" fill="#172033">5.631e-03</text>
<text x="550.0" y="486.0" font-family="Courier New" font-size="14" font-weight="400" fill="#172033">001110010000101010001000</text>
<text x="36.0" y="538.0" font-family="Courier New" font-size="14" font-weight="700" fill="#172033">tail</text>
<rect x="96" y="516" width="420" height="26" fill="#eef2f7" rx="4"/>
<rect x="96" y="516" width="36" height="26" fill="#d0d0d0" rx="4"/>
<text x="106.0" y="535.0" font-family="Arial" font-size="13" font-weight="700" fill="#172033">0.063504</text>
<text x="550.0" y="534.0" font-family="Courier New" font-size="14" font-weight="400" fill="#172033">tail</text>
</svg>
