<svg xmlns="http://www.w3.org/2000/svg" width="1500" height="640" viewBox="0 0 1500 640">
<rect width="100%" height="100%" fill="#ffffff"/>
<rect x="0" y="0" width="1500" height="640" fill="#ffffff" stroke="#d9dde6"/>
<text x="36" y="42" font-family="Arial" font-size="24" font-weight="700" fill="#172033">Challenge 3: 36_15 bitstring distribution</text>
<text x="36" y="72" font-family="Arial" font-size="15" font-weight="400" fill="#172033">difficulty=easy source=all_gpu status=ok validation=unknown</text>
<circle cx="743" cy="66" r="6" fill="#2864b8"/>
<text x="36" y="94" font-family="Arial" font-size="14" font-weight="400" fill="#172033">Top qiskit-order bitstrings from 1000 sampled shots</text>
<text x="96" y="112" font-family="Arial" font-size="13" font-weight="700" fill="#172033">count</text>
<text x="550" y="112" font-family="Courier New" font-size="13" font-weight="700" fill="#172033">qiskit_order bitstring</text>
<text x="36" y="140" font-family="Courier New" font-size="14" font-weight="700" fill="#172033"> 1</text>
<rect x="96" y="118" width="420" height="26" fill="#eef2f7" rx="4"/>
<rect x="96" y="118" width="420" height="26" fill="#2864b8" rx="4"/>
<text x="106" y="137" font-family="Arial" font-size="13" font-weight="700" fill="#172033">38 / 0.038</text>
<text x="550" y="136" font-family="Courier New" font-size="14" font-weight="400" fill="#172033">110110011011111111011001011110101111</text>
<text x="36" y="188" font-family="Courier New" font-size="14" font-weight="700" fill="#172033"> 2</text>
<rect x="96" y="166" width="420" height="26" fill="#eef2f7" rx="4"/>
<rect x="96" y="166" width="265" height="26" fill="#2864b8" rx="4"/>
<text x="106" y="185" font-family="Arial" font-size="13" font-weight="700" fill="#172033">24 / 0.024</text>
<text x="550" y="184" font-family="Courier New" font-size="14" font-weight="400" fill="#172033">110110011011111111011001011100101111</text>
<text x="36" y="236" font-family="Courier New" font-size="14" font-weight="700" fill="#172033"> 3</text>
<rect x="96" y="214" width="420" height="26" fill="#eef2f7" rx="4"/>
<rect x="96" y="214" width="187" height="26" fill="#2864b8" rx="4"/>
<text x="106" y="233" font-family="Arial" font-size="13" font-weight="700" fill="#172033">17 / 0.017</text>
<text x="550" y="232" font-family="Courier New" font-size="14" font-weight="400" fill="#172033">110110011011111111011000011110101111</text>
<text x="36" y="284" font-family="Courier New" font-size="14" font-weight="700" fill="#172033"> 4</text>
<rect x="96" y="262" width="420" height="26" fill="#eef2f7" rx="4"/>
<rect x="96" y="262" width="132" height="26" fill="#2864b8" rx="4"/>
<text x="106" y="281" font-family="Arial" font-size="13" font-weight="700" fill="#172033">12 / 0.012</text>
<text x="550" y="280" font-family="Courier New" font-size="14" font-weight="400" fill="#172033">110110011011011111011001011110101111</text>
<text x="36" y="332" font-family="Courier New" font-size="14" font-weight="700" fill="#172033"> 5</text>
<rect x="96" y="310" width="420" height="26" fill="#eef2f7" rx="4"/>
<rect x="96" y="310" width="99" height="26" fill="#2864b8" rx="4"/>
<text x="106" y="329" font-family="Arial" font-size="13" font-weight="700" fill="#172033">9 / 0.009</text>
<text x="550" y="328" font-family="Courier New" font-size="14" font-weight="400" fill="#172033">110110011011111111011001011010101111</text>
<text x="36" y="380" font-family="Courier New" font-size="14" font-weight="700" fill="#172033"> 6</text>
<rect x="96" y="358" width="420" height="26" fill="#eef2f7" rx="4"/>
<rect x="96" y="358" width="99" height="26" fill="#2864b8" rx="4"/>
<text x="106" y="377" font-family="Arial" font-size="13" font-weight="700" fill="#172033">9 / 0.009</text>
<text x="550" y="376" font-family="Courier New" font-size="14" font-weight="400" fill="#172033">110110011011111111011001011110001111</text>
<text x="36" y="428" font-family="Courier New" font-size="14" font-weight="700" fill="#172033"> 7</text>
<rect x="96" y="406" width="420" height="26" fill="#eef2f7" rx="4"/>
<rect x="96" y="406" width="88" height="26" fill="#2864b8" rx="4"/>
<text x="106" y="425" font-family="Arial" font-size="13" font-weight="700" fill="#172033">8 / 0.008</text>
<text x="550" y="424" font-family="Courier New" font-size="14" font-weight="400" fill="#172033">111110011011111111011001011110101111</text>
<text x="36" y="476" font-family="Courier New" font-size="14" font-weight="700" fill="#172033"> 8</text>
<rect x="96" y="454" width="420" height="26" fill="#eef2f7" rx="4"/>
<rect x="96" y="454" width="66" height="26" fill="#2864b8" rx="4"/>
<text x="106" y="473" font-family="Arial" font-size="13" font-weight="700" fill="#172033">6 / 0.006</text>
<text x="550" y="472" font-family="Courier New" font-size="14" font-weight="400" fill="#172033">110110011011111111011000011100101111</text>
<text x="36" y="524" font-family="Courier New" font-size="14" font-weight="700" fill="#172033"> 9</text>
<rect x="96" y="502" width="420" height="26" fill="#eef2f7" rx="4"/>
<rect x="96" y="502" width="66" height="26" fill="#2864b8" rx="4"/>
<text x="106" y="521" font-family="Arial" font-size="13" font-weight="700" fill="#172033">6 / 0.006</text>
<text x="550" y="520" font-family="Courier New" font-size="14" font-weight="400" fill="#172033">110110011011011111011001011100101111</text>
<text x="36" y="572" font-family="Courier New" font-size="14" font-weight="700" fill="#172033">10</text>
<rect x="96" y="550" width="420" height="26" fill="#eef2f7" rx="4"/>
<rect x="96" y="550" width="66" height="26" fill="#2864b8" rx="4"/>
<text x="106" y="569" font-family="Arial" font-size="13" font-weight="700" fill="#172033">6 / 0.006</text>
<text x="550" y="568" font-family="Courier New" font-size="14" font-weight="400" fill="#172033">110110011011111111011001001110101111</text>
</svg>
